<?xml version="1.0" encoding="UTF-8" standalone="no"?>
<svg
   xmlns:dc="http://purl.org/dc/elements/1.1/"
   xmlns:cc="http://creativecommons.org/ns#"
   xmlns:rdf="http://www.w3.org/1999/02/22-rdf-syntax-ns#"
   xmlns:svg="http://www.w3.org/2000/svg"
   xmlns="http://www.w3.org/2000/svg"
   id="SVGRoot"
   version="1.1"
   viewBox="0 0 31 31"
   height="31px"
   width="31px">
  <defs
     id="defs1510" />
  <metadata
     id="metadata1513">
    <rdf:RDF>
      <cc:Work
         rdf:about="">
        <dc:format>image/svg+xml</dc:format>
        <dc:type
           rdf:resource="http://purl.org/dc/dcmitype/StillImage" />
        <dc:title></dc:title>
      </cc:Work>
    </rdf:RDF>
  </metadata>
  <g
     id="layer1">
    <path
       id="path943"
       d="M 21.403057,0.16368688 2.4361369,5.6033929 0.76774986,30.832366 30.271846,20.046747 Z M 3.5118079,12.88603 h 4.039249 c 0.81956,0 1.485452,0.178198 1.997674,0.534593 0.6029601,0.422047 0.9044421,1.047297 0.9044421,1.87576 0,1.156718 -0.425878,2.163378 -1.2776321,3.019975 -0.825413,0.82846 -1.753271,1.24269 -2.783573,1.24269 -0.758092,0 -1.356662,-0.218837 -1.79571,-0.656517 -0.439048,-0.437676 -0.658572,-1.037921 -0.658572,-1.800729 0,-0.39391 0.08634,-0.815957 0.259036,-1.266139 0.163912,-0.428299 0.38051,-0.815958 0.649792,-1.162969 h 1.931817 c -0.330751,0.312623 -0.604423,0.712787 -0.821021,1.200484 -0.219524,0.500202 -0.329287,0.980084 -0.329287,1.439649 0,0.378276 0.07317,0.698719 0.219524,0.961325 0.175621,0.312626 0.428805,0.468941 0.759555,0.468941 0.550275,0 1.047865,-0.379842 1.492769,-1.139526 0.395143,-0.681526 0.592714,-1.334918 0.592714,-1.96017 0,-0.497075 -0.13464,-0.883171 -0.403925,-1.158282 -0.269283,-0.278238 -0.641013,-0.417357 -1.115183,-0.417357 h -4.333414 z m 15.4194011,0 h 4.039252 c 0.819558,0 1.485452,0.178198 1.997675,0.534593 0.60296,0.422047 0.904439,1.047297 0.904439,1.87576 0,1.156718 -0.425878,2.163378 -1.277632,3.019975 -0.825411,0.82846 -1.753268,1.24269 -2.78357,1.24269 -0.758092,0 -1.356663,-0.218837 -1.795711,-0.656517 -0.43905,-0.437676 -0.658575,-1.037921 -0.658575,-1.800729 0,-0.39391 0.08635,-0.815957 0.25904,-1.266139 0.163912,-0.428299 0.380509,-0.815958 0.649792,-1.162969 h 1.931817 c -0.330751,0.312623 -0.604427,0.712787 -0.821021,1.200484 -0.219524,0.500202 -0.329288,0.980084 -0.329288,1.439649 0,0.378276 0.07317,0.698719 0.219524,0.961325 0.175622,0.312626 0.428805,0.468941 0.759556,0.468941 0.550275,0 1.047864,-0.379842 1.492766,-1.139526 0.395142,-0.681526 0.592717,-1.334918 0.592717,-1.96017 0,-0.497075 -0.134643,-0.883171 -0.403926,-1.158282 -0.269283,-0.278238 -0.641012,-0.417357 -1.115183,-0.417357 h -4.333417 z m -7.301385,3.409193 h 1.593746 l -0.821021,2.438489 h 0.763946 l 0.821024,-2.438489 h 1.571793 l -0.799065,2.438489 h 0.74638 l 0.816631,-2.438489 h 1.576186 l -0.794678,2.438489 c -0.216597,0.500202 -0.58101,0.750305 -1.093233,0.750305 h -2.221586 c -0.389292,0 -0.605889,-0.137555 -0.649795,-0.412666 -0.21367,0.275111 -0.522468,0.412666 -0.926394,0.412666 h -0.781505 c -0.433195,0 -0.649793,-0.164129 -0.649793,-0.492387 0,-0.07816 0.01611,-0.164129 0.0483,-0.257918 z"
       style="fill:#ff0000;fill-opacity:1;stroke:none;stroke-width:0.0580798px;stroke-linecap:butt;stroke-linejoin:miter;stroke-opacity:1" />
  </g>
</svg>
