<?xml version="1.0" encoding="UTF-8" standalone="no"?>
<!-- Created with Inkscape (http://www.inkscape.org/) owo -->

<svg
   xmlns:dc="http://purl.org/dc/elements/1.1/"
   xmlns:cc="http://creativecommons.org/ns#"
   xmlns:rdf="http://www.w3.org/1999/02/22-rdf-syntax-ns#"
   xmlns:svg="http://www.w3.org/2000/svg"
   xmlns="http://www.w3.org/2000/svg"
   xmlns:sodipodi="http://sodipodi.sourceforge.net/DTD/sodipodi-0.dtd"
   xmlns:inkscape="http://www.inkscape.org/namespaces/inkscape"
   width="128px"
   height="128px"
   viewBox="0 0 128 128"
   version="1.1"
   id="SVGRoot"
   inkscape:version="0.92.1 r15371"
   sodipodi:docname="owo.svg">
  <sodipodi:namedview
     id="base"
     pagecolor="#ffffff"
     bordercolor="#666666"
     borderopacity="1.0"
     inkscape:pageopacity="0.0"
     inkscape:pageshadow="2"
     inkscape:zoom="5.6568542"
     inkscape:cx="25.259654"
     inkscape:cy="64.773039"
     inkscape:document-units="px"
     inkscape:current-layer="layer1"
     showgrid="false"
     inkscape:window-width="1920"
     inkscape:window-height="1001"
     inkscape:window-x="-9"
     inkscape:window-y="-9"
     inkscape:window-maximized="1"
     inkscape:grid-bbox="true"
     inkscape:snap-text-baseline="true" />
  <defs
     id="defs10" />
  <metadata
     id="metadata13">
    <rdf:RDF>
      <cc:Work
         rdf:about="">
        <dc:format>image/svg+xml</dc:format>
        <dc:type
           rdf:resource="http://purl.org/dc/dcmitype/StillImage" />
        <dc:title />
      </cc:Work>
    </rdf:RDF>
  </metadata>
  <g
     id="layer1"
     inkscape:groupmode="layer"
     inkscape:label="Layer 1">
    <path
       style="fill:#89a02c;stroke-width:0.95466661"
       d="M 64.347656 1.0742188 A 63.28606 63.28606 0 0 0 1.0605469 64.361328 A 63.28606 63.28606 0 0 0 64.347656 127.64648 A 63.28606 63.28606 0 0 0 127.63281 64.361328 A 63.28606 63.28606 0 0 0 64.347656 1.0742188 z M 94.4375 22.185547 C 95.21875 22.185547 96.911458 23.118056 99.515625 24.984375 C 100.21007 25.505208 100.55664 26.091146 100.55664 26.742188 C 100.55664 28.000868 98.691623 29.953993 94.958984 32.601562 C 92.485026 34.294271 90.097222 34.903212 87.796875 34.425781 C 86.494792 34.165365 85.36697 33.686632 84.412109 32.992188 C 84.10829 32.731771 83.868924 32.471354 83.695312 32.210938 C 83.565104 31.907118 83.544054 31.669705 83.630859 31.496094 C 83.761068 31.322483 84.021484 31.278429 84.412109 31.365234 C 88.405165 27.893012 91.030382 25.398003 92.289062 23.878906 C 93.287326 22.750434 94.003472 22.185547 94.4375 22.185547 z M 43.591797 43.865234 C 45.067491 43.865234 47.453342 45.383681 50.751953 48.421875 C 51.663411 47.987847 53.530382 47.185547 56.351562 46.013672 C 57.783854 45.536241 58.869575 45.296875 59.607422 45.296875 C 61.30013 45.296875 63.188151 46.882379 65.271484 50.050781 C 66.61697 52.003906 67.245009 54.173394 67.158203 56.560547 C 67.071398 60.423394 66.138889 65.545573 64.359375 71.925781 C 61.538195 81.995225 57.54579 89.807726 52.380859 95.363281 C 49.646484 98.31467 46.607639 99.789062 43.265625 99.789062 C 41.963542 99.789062 40.291884 99.507595 38.251953 98.943359 C 34.172092 98.682943 30.851779 97.40191 28.291016 95.101562 C 25.513238 92.584201 24.211155 89.351996 24.384766 85.402344 C 24.558377 80.801649 26.14388 74.377387 29.138672 66.130859 C 32.437283 57.146485 35.8648 50.680121 39.423828 46.730469 C 41.116536 44.820747 42.506727 43.865234 43.591797 43.865234 z M 82.71875 45.037109 C 83.413194 45.037109 84.433811 45.513889 85.779297 46.46875 C 87.775825 46.989583 88.882595 47.315104 89.099609 47.445312 C 90.097873 48.052951 90.595703 49.182726 90.595703 50.832031 C 90.595703 51.613281 90.509549 52.501736 90.335938 53.5 C 89.294271 59.359375 86.580946 69.10395 82.197266 82.732422 C 83.455946 81.60395 85.192708 79.541667 87.40625 76.546875 C 87.710069 76.15625 88.01454 75.960938 88.318359 75.960938 C 89.012804 75.960938 89.098958 76.569879 88.578125 77.785156 C 88.361111 78.262587 86.538194 81.234375 83.109375 86.703125 C 80.505208 90.869792 78.596137 94.559679 77.380859 97.771484 C 76.990234 98.769748 76.274089 99.269531 75.232422 99.269531 C 74.190755 99.269531 72.779514 98.769748 71 97.771484 C 69.871528 97.163846 69.306641 96.708116 69.306641 96.404297 C 69.306641 96.14388 69.546007 95.578993 70.023438 94.710938 C 72.367187 90.587674 74.971354 83.686632 77.835938 74.007812 C 80.570312 64.632813 82.111762 57.666666 82.458984 53.109375 C 82.589193 51.15625 82.39388 50.179688 81.873047 50.179688 C 81.482422 50.179688 80.787326 50.65842 79.789062 51.613281 L 75.751953 55.388672 C 74.319662 56.690755 73.603516 56.755859 73.603516 55.583984 C 73.603516 55.236762 73.798828 54.802083 74.189453 54.28125 C 76.229384 51.416667 78.400825 48.705295 80.701172 46.144531 C 81.395616 45.406684 82.067708 45.037109 82.71875 45.037109 z M 58.435547 50.179688 C 58.001519 50.179688 57.436632 50.267795 56.742188 50.441406 L 46.650391 54.542969 C 45.478516 55.020399 44.806424 55.257812 44.632812 55.257812 C 44.28559 55.257812 43.939019 54.846137 43.591797 54.021484 C 41.074436 57.103081 38.730686 61.551215 36.560547 67.367188 C 34.867839 71.924479 33.695964 76.004991 33.044922 79.607422 C 32.567491 82.037977 32.328125 84.251519 32.328125 86.248047 C 32.328125 92.932074 34.390408 96.187283 38.513672 96.013672 C 40.162977 95.970269 41.94184 95.319227 43.851562 94.060547 C 47.497396 91.586589 50.903863 86.638672 54.072266 79.216797 C 57.11046 72.22895 58.977431 65.306857 59.671875 58.449219 C 59.975694 55.541233 60.126953 53.695312 60.126953 52.914062 C 60.126953 51.091146 59.564019 50.179688 58.435547 50.179688 z "
       id="path28" />
  </g>
</svg>
