<?xml version="1.0" encoding="UTF-8" standalone="no"?>
<!-- Created with Inkscape (http://www.inkscape.org/) -->

<svg
   xmlns:dc="http://purl.org/dc/elements/1.1/"
   xmlns:cc="http://creativecommons.org/ns#"
   xmlns:rdf="http://www.w3.org/1999/02/22-rdf-syntax-ns#"
   xmlns:svg="http://www.w3.org/2000/svg"
   xmlns="http://www.w3.org/2000/svg"
   xmlns:sodipodi="http://sodipodi.sourceforge.net/DTD/sodipodi-0.dtd"
   xmlns:inkscape="http://www.inkscape.org/namespaces/inkscape"
   width="210mm"
   height="297mm"
   viewBox="0 0 210 297"
   version="1.1"
   id="svg907"
   inkscape:version="0.92.1 r15371"
   sodipodi:docname="sports car owo.svg">
  <defs
     id="defs901" />
  <sodipodi:namedview
     id="base"
     pagecolor="#ffffff"
     bordercolor="#666666"
     borderopacity="1.0"
     inkscape:pageopacity="0.0"
     inkscape:pageshadow="2"
     inkscape:zoom="0.90509668"
     inkscape:cx="371.47237"
     inkscape:cy="623.45537"
     inkscape:document-units="mm"
     inkscape:current-layer="layer1"
     showgrid="false"
     inkscape:window-width="1920"
     inkscape:window-height="1001"
     inkscape:window-x="-9"
     inkscape:window-y="-9"
     inkscape:window-maximized="1" />
  <metadata
     id="metadata904">
    <rdf:RDF>
      <cc:Work
         rdf:about="">
        <dc:format>image/svg+xml</dc:format>
        <dc:type
           rdf:resource="http://purl.org/dc/dcmitype/StillImage" />
        <dc:title></dc:title>
      </cc:Work>
    </rdf:RDF>
  </metadata>
  <g
     inkscape:label="Layer 1"
     inkscape:groupmode="layer"
     id="layer1">
    <path
       style="fill:#ff0000;fill-opacity:1;stroke:none;stroke-width:0.39113751px;stroke-linecap:butt;stroke-linejoin:miter;stroke-opacity:1"
       d="M 145.2398,32.905112 17.507374,69.538716 6.2716507,239.44285 204.96653,166.80726 Z M 24.751455,118.58353 h 27.202276 c 5.519304,0 10.003738,1.20006 13.4533,3.6002 4.060631,2.84227 6.090945,7.05302 6.090945,12.63228 0,7.7899 -2.868069,14.56923 -8.604197,20.33797 -5.558725,5.57925 -11.807365,8.36888 -18.745918,8.36888 -5.105354,0 -9.136415,-1.47376 -12.093184,-4.4213 -2.956768,-2.94753 -4.435153,-6.98986 -4.435153,-12.12698 0,-2.65279 0.581498,-5.49505 1.744491,-8.52679 1.103862,-2.88437 2.562536,-5.49505 4.376018,-7.83201 h 13.009785 c -2.227431,2.10537 -4.070483,4.80026 -5.529157,8.08465 -1.478384,3.36861 -2.217578,6.60037 -2.217575,9.69529 0,2.5475 0.492794,4.70551 1.478381,6.47403 1.182708,2.10537 2.887778,3.15807 5.115213,3.15807 3.705818,0 7.056819,-2.55803 10.053014,-7.67411 2.661092,-4.58973 3.991637,-8.98998 3.991637,-13.20073 0,-3.34755 -0.906742,-5.9477 -2.720228,-7.80043 -1.813482,-1.87379 -4.316883,-2.81068 -7.510189,-2.81068 H 20.227601 Z m 103.841725,0 h 27.20228 c 5.5193,0 10.00374,1.20006 13.4533,3.6002 4.06063,2.84227 6.09094,7.05302 6.09094,12.63228 0,7.7899 -2.86807,14.56923 -8.6042,20.33797 -5.55872,5.57925 -11.80736,8.36888 -18.74591,8.36888 -5.10535,0 -9.13641,-1.47376 -12.09318,-4.4213 -2.95678,-2.94753 -4.43516,-6.98986 -4.43516,-12.12698 0,-2.65279 0.58151,-5.49505 1.74449,-8.52679 1.10387,-2.88437 2.56254,-5.49505 4.37603,-7.83201 h 13.00978 c -2.22743,2.10537 -4.07049,4.80026 -5.52916,8.08465 -1.47838,3.36861 -2.21757,6.60037 -2.21757,9.69529 0,2.5475 0.49279,4.70551 1.47838,6.47403 1.18271,2.10537 2.88778,3.15807 5.11521,3.15807 3.70582,0 7.05682,-2.55803 10.05301,-7.67411 2.66109,-4.58973 3.99164,-8.98998 3.99164,-13.20073 0,-3.34755 -0.90674,-5.9477 -2.72022,-7.80043 -1.81349,-1.87379 -4.3169,-2.81068 -7.5102,-2.81068 h -29.18331 z m -49.171067,22.95916 h 10.733068 l -5.52915,16.42197 h 5.144775 l 5.529162,-16.42197 H 105.8852 l -5.38131,16.42197 h 5.02649 l 5.49959,-16.42197 h 10.61481 l -5.35175,16.42197 c -1.45868,3.3686 -3.9128,5.05291 -7.36236,5.05291 H 93.969422 c -2.62167,0 -4.080341,-0.92637 -4.376024,-2.7791 -1.43896,1.85273 -3.518558,2.7791 -6.238781,2.7791 h -5.26305 c -2.917341,0 -4.376012,-1.10533 -4.376012,-3.31598 0,-0.52634 0.108402,-1.10532 0.325243,-1.73693 z"
       id="path943"
       inkscape:connector-curvature="0" />
  </g>
</svg>
